<svg xmlns="http://www.w3.org/2000/svg" xmlns:xlink="http://www.w3.org/1999/xlink" xmlns:serif="http://www.serif.com/" width="100%" height="100%" viewBox="0 0 160 160" xml:space="preserve" style="fill-rule:evenodd;clip-rule:evenodd;stroke-linejoin:round;stroke-miterlimit:2;">    <g transform="matrix(0.325195,0,0,0.325195,55.8615,52.1941)">        <g transform="matrix(1,0,0,1,-1980.11,-951.441)">            <path d="M2242.31,1152.96C2242.31,1160.59 2236.13,1166.77 2228.51,1166.77L1848.61,1166.77C1840.98,1166.77 1834.79,1160.59 1834.79,1152.96L1834.79,835.229C1834.79,827.601 1840.98,821.412 1848.61,821.412L2228.51,821.412C2236.13,821.412 2242.31,827.601 2242.31,835.229L2242.31,1152.96Z" style="fill:rgb(234,244,254);fill-rule:nonzero;"></path>        </g>        <g transform="matrix(1,0,0,1,-1980.11,-951.441)">            <path d="M1834.79,871.359L1834.79,835.229C1834.79,827.601 1840.98,821.412 1848.61,821.412L2228.51,821.412C2236.13,821.412 2242.31,827.601 2242.31,835.229L2242.31,871.359" style="fill:rgb(153,198,246);fill-rule:nonzero;"></path>        </g>        <g transform="matrix(1,0,0,1,-1980.11,-951.441)">            <rect x="1993.86" y="924.986" width="27.64" height="27.626" style="fill:rgb(197,225,249);fill-rule:nonzero;"></rect>        </g>        <g transform="matrix(1,0,0,1,-1980.11,-951.441)">            <rect x="2049.12" y="924.986" width="27.63" height="27.626" style="fill:rgb(197,225,249);fill-rule:nonzero;"></rect>        </g>        <g transform="matrix(1,0,0,1,-1980.11,-951.441)">            <rect x="2104.38" y="924.986" width="27.63" height="27.626" style="fill:rgb(197,225,249);fill-rule:nonzero;"></rect>        </g>        <g transform="matrix(1,0,0,1,-1980.11,-951.441)">            <rect x="2159.63" y="924.986" width="27.63" height="27.626" style="fill:rgb(197,225,249);fill-rule:nonzero;"></rect>        </g>        <g transform="matrix(1,0,0,1,-1980.11,-951.441)">            <rect x="1883.35" y="980.245" width="27.63" height="27.635" style="fill:rgb(197,225,249);fill-rule:nonzero;"></rect>        </g>        <g transform="matrix(1,0,0,1,-1980.11,-951.441)">            <rect x="1938.6" y="980.245" width="27.63" height="27.635" style="fill:rgb(197,225,249);fill-rule:nonzero;"></rect>        </g>        <g transform="matrix(1,0,0,1,-1980.11,-951.441)">            <rect x="1993.86" y="980.245" width="27.64" height="27.635" style="fill:rgb(159,196,0);fill-rule:nonzero;"></rect>        </g>        <g transform="matrix(1,0,0,1,-1980.11,-951.441)">            <rect x="2049.12" y="980.245" width="27.63" height="27.635" style="fill:rgb(159,196,0);fill-rule:nonzero;"></rect>        </g>        <g transform="matrix(1,0,0,1,-1980.11,-951.441)">            <rect x="2104.38" y="980.245" width="27.63" height="27.635" style="fill:rgb(197,225,249);fill-rule:nonzero;"></rect>        </g>        <g transform="matrix(1,0,0,1,-1980.11,-951.441)">            <rect x="2159.63" y="980.245" width="27.63" height="27.635" style="fill:rgb(197,225,249);fill-rule:nonzero;"></rect>        </g>        <g transform="matrix(1,0,0,1,-1980.11,-951.441)">            <rect x="1883.35" y="1035.5" width="27.63" height="27.63" style="fill:rgb(78,153,255);fill-rule:nonzero;"></rect>        </g>        <g transform="matrix(1,0,0,1,-1980.11,-951.441)">            <rect x="1938.6" y="1035.5" width="27.63" height="27.63" style="fill:rgb(78,153,255);fill-rule:nonzero;"></rect>        </g>        <g transform="matrix(1,0,0,1,-1980.11,-951.441)">            <rect x="1993.86" y="1035.5" width="27.64" height="27.63" style="fill:rgb(78,153,255);fill-rule:nonzero;"></rect>        </g>        <g transform="matrix(1,0,0,1,-1980.11,-951.441)">            <rect x="2049.12" y="1035.5" width="27.63" height="27.63" style="fill:rgb(197,225,249);fill-rule:nonzero;"></rect>        </g>        <g transform="matrix(1,0,0,1,-1980.11,-951.441)">            <rect x="2104.38" y="1035.5" width="27.63" height="27.63" style="fill:rgb(255,89,49);fill-rule:nonzero;"></rect>        </g>        <g transform="matrix(1,0,0,1,-1980.11,-951.441)">            <rect x="2159.63" y="1035.5" width="27.63" height="27.63" style="fill:rgb(197,225,249);fill-rule:nonzero;"></rect>        </g>        <g transform="matrix(1,0,0,1,-1980.11,-951.441)">            <rect x="1883.35" y="1090.75" width="27.63" height="27.64" style="fill:rgb(197,225,249);fill-rule:nonzero;"></rect>        </g>        <g transform="matrix(1,0,0,1,-1980.11,-951.441)">            <rect x="1938.6" y="1090.75" width="27.63" height="27.64" style="fill:rgb(197,225,249);fill-rule:nonzero;"></rect>        </g>        <g transform="matrix(1,0,0,1,-1980.11,-951.441)">            <rect x="1993.86" y="1090.75" width="27.64" height="27.64" style="fill:rgb(197,225,249);fill-rule:nonzero;"></rect>        </g>        <g transform="matrix(1,0,0,1,-1980.11,-951.441)">            <path d="M1890.25,943.658L1904.07,943.658L1904.07,933.951L1890.25,933.951" style="fill:rgb(197,225,249);fill-rule:nonzero;"></path>        </g>        <g transform="matrix(1,0,0,1,-1980.11,-951.441)">            <path d="M1945.51,943.658L1959.32,943.658L1959.32,933.951L1945.51,933.951" style="fill:rgb(197,225,249);fill-rule:nonzero;"></path>        </g>        <g transform="matrix(1,0,0,1,-1980.11,-951.441)">            <path d="M2166.54,1109.42L2180.35,1109.42L2180.35,1099.72L2166.54,1099.72" style="fill:rgb(197,225,249);fill-rule:nonzero;"></path>        </g>        <g transform="matrix(1,0,0,1,-1980.11,-951.441)">            <path d="M2111.28,1109.42L2125.1,1109.42L2125.1,1099.72L2111.28,1099.72" style="fill:rgb(197,225,249);fill-rule:nonzero;"></path>        </g>        <g transform="matrix(1,0,0,1,-1980.11,-951.441)">            <path d="M2056.03,1109.42L2069.84,1109.42L2069.84,1099.72L2056.03,1099.72" style="fill:rgb(197,225,249);fill-rule:nonzero;"></path>        </g>        <g transform="matrix(1,0,0,1,-1980.11,-951.441)">            <path d="M1986.76,853.893L2111.09,853.893L2111.09,844.187L1986.76,844.187" style="fill:white;fill-rule:nonzero;"></path>        </g>        <g transform="matrix(1,0,0,1,-1980.11,-951.441)">            <path d="M1862.43,853.893L1876.23,853.893L1876.23,844.187L1862.43,844.187" style="fill:white;fill-rule:nonzero;"></path>        </g>        <g transform="matrix(1,0,0,1,-1980.11,-951.441)">            <path d="M2200.87,853.893L2214.69,853.893L2214.69,844.187L2200.87,844.187" style="fill:white;fill-rule:nonzero;"></path>        </g>        <g transform="matrix(1,0,0,1,-1980.11,-951.441)">            <rect x="1834.79" y="871.82" width="407.52" height="9.701" style="fill:rgb(197,225,249);fill-rule:nonzero;"></rect>        </g>        <g transform="matrix(1,0,0,1,-1980.11,-951.441)">            <path d="M2143.89,1018.62L2172.22,1059.62L2195.5,1061.07L2198.12,1060.05L2198.34,1059.32L2223.51,1039.83L2193.84,1010.4L2192.31,1011.27L2179.35,1023.21L2168.43,1026.34L2149.43,1020.37L2144.62,1017.75L2143.89,1018.62Z" style="fill:rgb(5,97,252);fill-rule:nonzero;"></path>        </g>        <g transform="matrix(1,0,0,1,-1980.11,-951.441)">            <path d="M2189.04,1011.27L2192.31,1011.27L2221.36,1040.61L2217.65,1040.98L2189.04,1011.27Z" style="fill:rgb(197,225,249);fill-rule:nonzero;"></path>        </g>        <g transform="matrix(1,0,0,1,-1980.11,-951.441)">            <path d="M2151.65,1016.73C2151.65,1016.73 2148.11,1018.42 2146.22,1018.84C2145.9,1018.92 2174.76,1060.05 2174.76,1060.05C2174.76,1060.05 2194.64,1059.91 2195.44,1060.05C2196.24,1060.2 2221.36,1040.61 2221.36,1040.61L2217.65,1040.98L2189.55,1054.74L2151.65,1016.73Z" style="fill:rgb(154,199,247);fill-rule:nonzero;"></path>        </g>        <g transform="matrix(1,0,0,1,-1980.11,-951.441)">            <path d="M2151.65,1016.73L2179.03,1055.76C2179.03,1055.76 2191.62,1055.9 2193.22,1056.85C2194.83,1057.8 2195.92,1058.89 2195.92,1058.89L2166.28,1022.34C2166.28,1022.34 2161.41,1018.19 2151.65,1016.73Z" style="fill:rgb(197,225,249);fill-rule:nonzero;"></path>        </g>        <g transform="matrix(1,0,0,1,-1980.11,-951.441)">            <path d="M2189.04,1011.27C2189.04,1011.27 2184.67,1013.38 2182.48,1014.11C2180.3,1014.84 2175.2,1017.9 2173.09,1020.08C2170.98,1022.26 2168.87,1025.61 2168.87,1025.61L2195.59,1058.89C2195.59,1058.89 2201.49,1052.19 2205.35,1050.01C2209.21,1047.82 2218.16,1041.05 2218.16,1041.05L2189.04,1011.27Z" style="fill:rgb(234,244,254);fill-rule:nonzero;"></path>        </g>        <g transform="matrix(1,0,0,1,-1980.11,-951.441)">            <path d="M2233.01,1030.42L2227.84,1030.71L2217.5,1026.41C2217.5,1026.41 2217.29,1026.27 2215.39,1026.71C2213.5,1027.14 2210.01,1027.73 2209.42,1027.73C2208.84,1027.73 2207.31,1028.02 2206.44,1027.94C2205.56,1027.87 2204.4,1027.8 2204.4,1027.8C2204.4,1027.8 2203.45,1028.6 2204.54,1029.55C2205.64,1030.49 2207.09,1031.29 2208.48,1031.22C2209.86,1031.15 2211.03,1031 2211.75,1030.93C2212.48,1030.86 2214.23,1030.86 2214.23,1030.86L2223.26,1039.3L2223.69,1039.81L2222.31,1041.12C2222.31,1041.12 2224.86,1041.27 2226.61,1040.69C2228.35,1040.1 2229.16,1039.96 2229.52,1039.81C2229.88,1039.67 2232.72,1039.52 2232.72,1039.52C2232.72,1039.52 2235.2,1035.3 2233.01,1030.42Z" style="fill:rgb(247,182,139);fill-rule:nonzero;"></path>        </g>        <g transform="matrix(1,0,0,1,-1980.11,-951.441)">            <path d="M2179.6,1057.68C2179.6,1057.68 2178.22,1054.49 2177.53,1053.48C2176.84,1052.47 2175.57,1051.3 2175.2,1050.56C2174.82,1049.81 2174.4,1046.78 2174.4,1046.63C2174.4,1046.47 2173.55,1045.88 2173.5,1045.62C2173.44,1045.35 2173.23,1044.93 2173.23,1044.71C2173.23,1044.5 2172.43,1044.18 2171.85,1044.5C2171.26,1044.82 2170.84,1045.3 2170.89,1045.83C2170.95,1046.36 2171.42,1047 2171.26,1048.11C2171.1,1049.23 2171.74,1049.23 2170.95,1050.4C2170.15,1051.57 2169.51,1052.1 2169.51,1052.1L2167.39,1051.78L2163.19,1045.51C2163.19,1045.51 2162.98,1051.88 2162.98,1053.27C2162.98,1054.65 2162.76,1055.02 2163.24,1055.76C2163.72,1056.51 2164.2,1056.61 2164.2,1056.93C2164.2,1057.25 2163.45,1057.83 2163.61,1058.74C2163.77,1059.64 2165.42,1060.28 2166.22,1060.86C2167.01,1061.45 2170.31,1063.68 2172.65,1065.43C2174.98,1067.18 2174.98,1067.34 2175.67,1067.61C2176.36,1067.88 2182.42,1067.17 2182.42,1067.17C2182.42,1067.17 2182.31,1061.55 2182.21,1059.75C2182.1,1057.94 2182.09,1058.71 2182.09,1058.71L2179.6,1057.68Z" style="fill:rgb(247,182,139);fill-rule:nonzero;"></path>        </g>        <g transform="matrix(1,0,0,1,-1980.11,-951.441)">            <path d="M2235.83,977.604C2235.83,977.604 2231.21,984.889 2226.16,985.273C2221.12,985.656 2218.6,973.769 2218.6,965.717C2218.6,957.665 2227.42,949.996 2228.27,947.696C2229.11,945.395 2237.93,953.064 2237.93,959.966C2237.93,966.867 2235.83,975.687 2235.83,977.604Z" style="fill:rgb(236,149,104);fill-rule:nonzero;"></path>        </g>        <g transform="matrix(1,0,0,1,-1980.11,-951.441)">            <path d="M2266.86,1228.69C2266.86,1228.69 2267.29,1232.95 2267.29,1234.26C2267.29,1235.57 2264.45,1239.28 2264.23,1240.37L2264.02,1241.47L2285.42,1241.47C2285.42,1241.47 2285.86,1239.28 2282.36,1236.44C2278.87,1233.6 2277.78,1231.64 2277.34,1228.04C2276.9,1224.43 2266.86,1228.69 2266.86,1228.69Z" style="fill:rgb(197,225,249);fill-rule:nonzero;"></path>        </g>        <g transform="matrix(1,0,0,1,-1980.11,-951.441)">            <path d="M2229.4,1229.24L2231.58,1241.03L2198.17,1241.03C2198.17,1241.03 2197.95,1237.32 2201.88,1236.23C2205.81,1235.13 2216.51,1231.86 2219.35,1228.36C2222.19,1224.87 2229.4,1229.24 2229.4,1229.24Z" style="fill:rgb(197,225,249);fill-rule:nonzero;"></path>        </g>        <g transform="matrix(1,0,0,1,-1980.11,-951.441)">            <path d="M2267.74,1228.36L2234.98,1110.75L2230.07,1059.65L2230.07,1056.7L2248.74,1057.03C2248.74,1057.03 2260.53,1069.8 2260.21,1086.51C2259.88,1103.22 2259.22,1140.89 2261.84,1148.1C2264.47,1155.31 2271.35,1167.43 2272,1174.96C2272.66,1182.5 2275.93,1227.71 2275.93,1227.71L2267.74,1228.36Z" style="fill:rgb(33,41,87);fill-rule:nonzero;"></path>        </g>        <g transform="matrix(1,0,0,1,-1980.11,-951.441)">            <path d="M2210.41,1057.35C2210.41,1057.35 2203.86,1068.49 2205.5,1088.15C2207.13,1107.8 2219.91,1227.71 2219.91,1227.71L2229.74,1228.04C2229.74,1228.04 2233.02,1182.17 2231.71,1171.03C2230.39,1159.89 2226.79,1148.43 2227.12,1146.46C2227.45,1144.5 2247.37,1088.57 2243.83,1078.65C2242.01,1073.56 2235.96,1057.35 2234.98,1057.03C2234,1056.7 2210.41,1057.35 2210.41,1057.35Z" style="fill:rgb(59,71,188);fill-rule:nonzero;"></path>        </g>        <g transform="matrix(1,0,0,1,-1980.11,-951.441)">            <path d="M2210.89,1063.9C2210.89,1063.9 2210.85,1067.94 2210.85,1074.26C2210.85,1083.75 2210.94,1098.38 2211.4,1112.28C2211.86,1126.18 2212.69,1139.32 2214.18,1145.92C2216.13,1154.54 2218.1,1171.26 2219.57,1186.68C2221.04,1202.11 2222.03,1216.29 2222.03,1219.85L2223.04,1219.85C2223.04,1216.19 2222.05,1202.04 2220.58,1186.59C2219.1,1171.14 2217.14,1154.43 2215.16,1145.69C2213.71,1139.27 2212.87,1126.12 2212.41,1112.25C2211.95,1098.37 2211.86,1083.74 2211.86,1074.26C2211.86,1071.1 2211.87,1068.51 2211.88,1066.72C2211.89,1064.92 2211.9,1063.91 2211.9,1063.91L2210.89,1063.9Z" style="fill:rgb(126,179,255);fill-rule:nonzero;"></path>        </g>        <g transform="matrix(1,0,0,1,-1980.11,-951.441)">            <path d="M2254.64,997.074C2254.64,997.074 2262.83,1003.63 2256.28,1022.96C2249.72,1042.28 2247.1,1052.77 2245.79,1053.1C2244.48,1053.42 2237.6,1054.73 2235.31,1052.11C2233.02,1049.49 2231.05,1047.2 2231.38,1045.56C2231.71,1043.92 2239.09,1002.26 2239.9,998.385C2241.53,990.523 2252.34,996.092 2254.64,997.074Z" style="fill:rgb(154,199,247);fill-rule:nonzero;"></path>        </g>        <g transform="matrix(1,0,0,1,-1980.11,-951.441)">            <path d="M2214.01,998.713L2223.52,993.799L2241.21,993.471C2241.21,993.471 2250.38,994.781 2254.31,1003.3C2255.66,1006.23 2252.34,1048.84 2252.02,1054.73C2251.69,1060.63 2257.14,1064.08 2256.08,1067.17C2250.1,1084.59 2204.82,1072.15 2204.82,1072.15C2204.82,1072.15 2207.46,1003.95 2214.01,998.713Z" style="fill:rgb(197,225,249);fill-rule:nonzero;"></path>        </g>        <g transform="matrix(1,0,0,1,-1980.11,-951.441)">            <path d="M2243.5,976.108L2242.19,993.799C2242.19,993.799 2242.86,996.261 2237.27,996.747C2229.74,997.402 2226.46,994.454 2226.46,994.454C2226.46,994.454 2230.72,986.264 2230.07,975.125C2229.41,963.987 2243.5,976.108 2243.5,976.108Z" style="fill:rgb(247,182,139);fill-rule:nonzero;"></path>        </g>        <g transform="matrix(1,0,0,1,-1980.11,-951.441)">            <path d="M2230.39,943.02C2230.39,943.02 2239.97,940.723 2249.4,947.934C2254.96,952.193 2258.24,959.728 2255.29,965.952C2252.34,972.177 2245.79,980.367 2242.52,980.367C2239.24,980.367 2232.03,975.453 2231.05,973.487C2230.07,971.521 2230.07,970.211 2229.41,965.952C2228.76,961.694 2226.46,963.004 2226.46,963.987C2226.46,964.969 2225.15,967.918 2224.5,965.952C2223.84,963.987 2210.41,949.9 2230.39,943.02Z" style="fill:rgb(33,41,87);fill-rule:nonzero;"></path>        </g>        <g transform="matrix(1,0,0,1,-1980.11,-951.441)">            <path d="M2236.95,944.003C2236.95,951.602 2243.33,957.762 2251.2,957.762C2259.07,957.762 2265.45,951.602 2265.45,944.003C2265.45,936.404 2259.07,930.243 2251.2,930.243C2243.33,930.243 2236.95,936.404 2236.95,944.003Z" style="fill:rgb(33,41,87);fill-rule:nonzero;"></path>        </g>        <g transform="matrix(1,0,0,1,-1980.11,-951.441)">            <path d="M2206.16,1049.36L2180.43,1059.21C2180.43,1059.21 2172.58,1068.34 2177.2,1067.92C2182.67,1067.42 2204.92,1063.36 2204.92,1063.36C2204.92,1063.36 2220.7,1049.75 2206.16,1049.36Z" style="fill:rgb(247,182,139);fill-rule:nonzero;"></path>        </g>        <g transform="matrix(1,0,0,1,-1980.11,-951.441)">            <path d="M2214.78,999.214C2214.78,999.214 2224.03,1004.15 2221.15,1024.35C2218.27,1044.55 2217.63,1055.34 2216.4,1055.9C2215.17,1056.47 2208.65,1059.02 2205.91,1056.87C2203.18,1054.72 2200.82,1052.82 2200.84,1051.15C2200.86,1049.48 2206.9,1012.35 2207.85,1008.51C2208.8,1004.67 2212.34,998.67 2214.78,999.214Z" style="fill:rgb(154,199,247);fill-rule:nonzero;"></path>        </g>        <g transform="matrix(1,0,0,1,-1980.11,-951.441)">            <path d="M1958.93,1224.73C1959.37,1225.32 1959.04,1226.88 1959.04,1226.88C1959.04,1226.88 1951.24,1227.86 1948.74,1227.22C1948.09,1227.06 1946.99,1226.45 1945.96,1225.8C1945.78,1225.69 1945.47,1225.03 1945.31,1224.92C1944.99,1224.72 1944.83,1225.06 1944.56,1224.88C1943.87,1224.4 1943.38,1224.03 1943.37,1223.98C1942.7,1220.06 1943.62,1218.48 1943.62,1218.48C1943.62,1218.48 1950.26,1216.04 1951.5,1217.72C1954.41,1221.68 1957.95,1223.44 1958.93,1224.73Z" style="fill:rgb(22,63,89);fill-rule:nonzero;"></path>        </g>        <g transform="matrix(1,0,0,1,-1980.11,-951.441)">            <path d="M1999.97,1219.64L2001.13,1225.98L2004.17,1225.98C2004.17,1225.98 2004.51,1225.08 2005.03,1225.08C2005.47,1225.08 2006.04,1225.98 2006.64,1225.98L2022.31,1225.98C2022.31,1225.98 2022.59,1224.64 2022.25,1224.18C2022.07,1223.95 2021.04,1223.54 2020.35,1223.33C2017.17,1222.4 2008.06,1219.46 2006.48,1216.27C2004.55,1212.39 1999.97,1219.64 1999.97,1219.64Z" style="fill:rgb(22,63,89);fill-rule:nonzero;"></path>        </g>        <g transform="matrix(1,0,0,1,-1980.11,-951.441)">            <path d="M1957.56,1080.07L1951.07,1076.46L1950.3,1075.65L1951.2,1074.2L1952.63,1074.38L1952.38,1070.15L1959.18,1068.94L1962.67,1067.31L1959.45,1078.78" style="fill:rgb(247,182,139);fill-rule:nonzero;"></path>        </g>        <g transform="matrix(1,0,0,1,-1980.11,-951.441)">            <path d="M1987.67,976.895C1987.67,976.895 1980.39,984.913 2002.8,1006.08C2025.21,1027.25 2029.3,1021.06 2029.3,1021.06L2036.07,1016.55L2041.09,992.994L2030.27,990.487L2029.1,991.874C2029.1,991.874 2026.77,992.105 2025.6,990.448C2024.44,988.791 2017.01,983.219 2006.31,969.464C2001.37,963.123 1989.06,975.344 1987.67,976.895Z" style="fill:rgb(212,237,255);fill-rule:nonzero;"></path>        </g>        <g transform="matrix(1,0,0,1,-1980.11,-951.441)">            <path d="M2039.3,994.341C2039.3,994.341 2061.9,993.93 2063.71,970.398C2064.24,963.406 2066.03,970.171 2067.26,976.85C2068.5,983.531 2064.37,1002.36 2052.29,1009.92C2040.22,1017.49 2035.06,1019.35 2030.39,1016.26C2025.72,1013.18 2039.3,994.341 2039.3,994.341Z" style="fill:rgb(247,182,139);fill-rule:nonzero;"></path>        </g>        <g transform="matrix(1,0,0,1,-1980.11,-951.441)">            <path d="M2005.96,1219.67C2005.96,1219.67 2002.45,1224.75 1999.87,1220C1993.92,1209.03 1985.08,1181.94 1984.78,1169.61C1984.35,1151.93 1987.35,1139.63 1987.35,1139.63L2006.19,1133.48L2005.96,1219.67Z" style="fill:rgb(22,63,89);fill-rule:nonzero;"></path>        </g>        <g transform="matrix(1,0,0,1,-1980.11,-951.441)">            <path d="M2005.34,1052.46L2006.19,1133.48L1989.07,1142.94C1989.07,1142.94 1978.79,1123.61 1977.5,1098.94C1976.96,1088.46 1976.69,1064.96 1982.55,1056.97C1990.49,1046.14 2005.34,1052.46 2005.34,1052.46Z" style="fill:rgb(22,63,89);fill-rule:nonzero;"></path>        </g>        <g transform="matrix(1,0,0,1,-1980.11,-951.441)">            <path d="M1999.09,1052.46L1996.29,1080.51L1988.68,1110.93L1980.58,1139.36L1951.64,1218.28L1943.22,1218.96C1943.22,1218.96 1944.29,1159.72 1954.56,1142.45C1960,1133.31 1959.99,1113.02 1962.51,1091.17C1962.96,1087.24 1960.73,1078.35 1961.09,1074.76C1962.51,1060.6 1969.79,1049.99 1969.79,1049.99L1999.09,1052.46Z" style="fill:rgb(25,72,102);fill-rule:nonzero;"></path>        </g>        <g transform="matrix(1,0,0,1,-1980.11,-951.441)">            <path d="M2005.62,1053.7L1968.51,1052.87L1952.67,999.82C1952.67,999.82 1942.39,967.74 1962.09,967.331C1981.78,966.917 2004.48,966.917 2004.48,966.917C2004.48,966.917 2020.75,996.84 2005.62,1053.7Z" style="fill:rgb(212,237,255);fill-rule:nonzero;"></path>        </g>        <g transform="matrix(1,0,0,1,-1980.11,-951.441)">            <path d="M1939.04,1038.2L1962.53,1066.8C1962.53,1066.8 1961.69,1070.96 1959.8,1068.75C1959.57,1068.48 1960.71,1067.65 1959.28,1066.86C1953.51,1063.71 1939.95,1058.86 1934.93,1054.01C1928.33,1047.63 1923.63,1040.13 1923.63,1040.13L1939.04,1038.2Z" style="fill:rgb(247,182,139);fill-rule:nonzero;"></path>        </g>        <g transform="matrix(1,0,0,1,-1980.11,-951.441)">            <path d="M1985.46,974.37C1985.46,974.37 2002.72,1008.51 1997.82,1046.3C1997.43,1049.27 1994.34,1051.4 1994.34,1051.4L1990.09,1047.15C1990.09,1047.15 1990.43,1004.38 1985.46,974.37Z" style="fill:rgb(56,123,255);fill-rule:nonzero;"></path>        </g>        <g transform="matrix(1,0,0,1,-1980.11,-951.441)">            <path d="M1984.84,973.579L1983.9,980.156L1972.62,969.472L1972.62,967.827L1984.84,973.579Z" style="fill:rgb(172,212,248);fill-rule:nonzero;"></path>        </g>        <g transform="matrix(1,0,0,1,-1980.11,-951.441)">            <path d="M1988.39,969.336L1990.37,977.892L1985.36,973.579L1988.39,969.336Z" style="fill:rgb(172,212,248);fill-rule:nonzero;"></path>        </g>        <g transform="matrix(1,0,0,1,-1980.11,-951.441)">            <path d="M2021.85,998.366L2024.79,993.047L2026.09,990.987C2027.32,992.051 2029.1,991.876 2029.1,991.876L2026.17,995.425L2023.48,1000.24L2021.96,1007.59L2021.85,998.366Z" style="fill:rgb(172,212,248);fill-rule:nonzero;"></path>        </g>        <g transform="matrix(1,0,0,1,-1980.11,-951.441)">            <path d="M1954.46,998.881L1941.55,1036.05L1938.76,1037.16L1940.31,1039.63L1924.4,1042.4L1917.4,1030.25L1935.99,979.807C1935.99,979.807 1943.18,969.207 1959.18,967.446C1970.79,966.17 1955.38,995.788 1954.46,998.881Z" style="fill:rgb(212,237,255);fill-rule:nonzero;"></path>        </g>        <g transform="matrix(1,0,0,1,-1980.11,-951.441)">            <path d="M1923.42,1033.78C1923.42,1033.78 1934.28,1035.81 1939.98,1036.67L1938.76,1037.16L1940.31,1039.63L1934.8,1040.54L1926.77,1040.72L1925.52,1037.75L1927.87,1037.16L1923.42,1033.78Z" style="fill:rgb(176,191,222);fill-rule:nonzero;"></path>        </g>        <g transform="matrix(1,0,0,1,-1980.11,-951.441)">            <path d="M1971.22,959.876C1971.66,961.916 1972.4,965.074 1973.22,966.917C1974.5,969.796 1985.64,973.497 1987.35,973.91C1989.06,974.319 1986.92,965.271 1986.92,963.216C1986.92,961.648 1985.91,962.135 1987.13,959.876L1971.22,959.876Z" style="fill:rgb(247,182,139);fill-rule:nonzero;"></path>        </g>        <g transform="matrix(1,0,0,1,-1980.11,-951.441)">            <path d="M1990.25,955.297C1990.53,957.059 1989.33,958.718 1987.57,959.001L1973.21,961.303C1971.45,961.587 1969.79,960.387 1969.51,958.624L1966.1,937.353C1965.81,935.592 1967.01,933.933 1968.78,933.651L1983.13,931.347C1984.9,931.065 1986.55,932.263 1986.84,934.027L1990.25,955.297Z" style="fill:rgb(247,182,139);fill-rule:nonzero;"></path>        </g>        <g transform="matrix(1,0,0,1,-1980.11,-951.441)">            <path d="M1987.56,938.409C1987.56,938.409 1989.16,936.039 1989.31,934.718C1989.39,934.051 1988.38,931.732 1986.63,931.057C1984.89,930.382 1983.84,932.324 1983.84,932.324C1983.84,932.324 1986.61,933.334 1986.83,933.844C1987.05,934.356 1987.56,938.409 1987.56,938.409Z" style="fill:rgb(22,63,89);fill-rule:nonzero;"></path>        </g>        <g transform="matrix(1,0,0,1,-1980.11,-951.441)">            <path d="M1966.17,947.16C1966.17,947.16 1962.69,939.332 1962.7,936.874C1962.72,934.417 1962.72,932.713 1965.6,931.977C1969.91,930.877 1970.11,931.797 1972.03,930.128C1973.94,928.457 1977.25,924.64 1978.52,924.109C1980.63,923.225 1984.18,923.406 1984.97,927.507C1985.56,930.531 1987.6,930.97 1987.56,931.091C1987.45,931.492 1986.71,931.967 1985.43,932.887C1981.76,935.524 1979.43,936.304 1976.24,935.997C1973.06,935.691 1967.08,934.875 1966.78,937.243C1966.48,939.607 1967.86,946.48 1967.68,947.054C1967.49,947.629 1966.77,947.472 1966.17,947.16Z" style="fill:rgb(25,72,102);fill-rule:nonzero;"></path>        </g>        <g transform="matrix(1,0,0,1,-1980.11,-951.441)">            <path d="M1971.71,952.815C1971.81,953.403 1971.41,953.956 1970.82,954.05L1967.72,954.547C1967.13,954.642 1966.58,954.242 1966.49,953.655L1965.57,947.983C1965.48,947.396 1965.88,946.842 1966.47,946.748L1969.57,946.25C1970.16,946.156 1970.71,946.556 1970.8,947.143L1971.71,952.815Z" style="fill:rgb(247,182,139);fill-rule:nonzero;"></path>        </g>        <g transform="matrix(1,0,0,1,-1980.11,-951.441)">            <path d="M1990.21,949.848C1990.31,950.435 1989.91,950.988 1989.32,951.081L1986.22,951.578C1985.63,951.673 1985.08,951.274 1984.99,950.686L1984.08,945.015C1983.98,944.428 1984.38,943.874 1984.97,943.779L1988.07,943.282C1988.66,943.187 1989.21,943.588 1989.31,944.175L1990.21,949.848Z" style="fill:rgb(247,182,139);fill-rule:nonzero;"></path>        </g>        <g transform="matrix(1,0,0,1,-1980.11,-951.441)">            <path d="M1967.84,948.802C1967.84,948.802 1969.19,957.176 1969.63,959.968C1970.04,962.492 1971.93,967.871 1986.19,965.585C1994.64,964.228 1993.33,958.072 1993,956.035C1992.75,954.485 1990.25,950.118 1989.22,949.371L1989.77,952.826C1989.77,952.826 1987.48,949.74 1983.47,950.384C1976.99,951.425 1976.13,955.449 1973.26,955.84C1971.06,956.14 1968.84,952.824 1967.84,948.802Z" style="fill:rgb(25,72,102);fill-rule:nonzero;"></path>        </g>        <g transform="matrix(1,0,0,1,-1980.11,-951.441)">            <path d="M1981.68,956.306L1986.11,955.596C1986.7,955.502 1987.1,954.949 1987.01,954.362L1986.91,953.743L1980.35,954.794L1980.45,955.413C1980.54,956.001 1981.1,956.401 1981.68,956.306Z" style="fill:rgb(247,182,139);fill-rule:nonzero;"></path>        </g>        <g transform="matrix(1,0,0,1,-1980.11,-951.441)">            <path d="M2063.36,974.356C2063.36,974.356 2061.23,967.126 2062.33,965.318C2063.44,963.515 2067.89,957.201 2067.89,957.201L2069.17,955.702C2069.17,955.702 2071.48,956.299 2068.44,960.507C2065.41,964.718 2067.93,963.536 2067.93,963.536L2072.03,960.848L2077.29,957.976L2079.48,956.384C2079.48,956.384 2080.65,955.379 2081.12,955.397C2082.48,955.449 2081.94,956.547 2081.94,956.547L2073.94,963.515L2082.94,959.243C2082.94,959.243 2084.18,958.903 2084.57,959.492C2084.93,960.046 2084.57,960.251 2084.57,960.251L2075.43,967.662L2080.31,966.019C2080.31,966.019 2081.53,965.719 2081.94,966.273C2082.38,966.877 2082.51,967.031 2082.51,967.031L2064.54,976.145L2063.36,974.356Z" style="fill:rgb(247,182,139);fill-rule:nonzero;"></path>        </g>        <g transform="matrix(1,0,0,1,-1980.11,-951.441)">            <path d="M2075.2,964.966L2081.7,962.355C2081.7,962.355 2083.09,961.599 2083.95,961.682C2084.92,961.779 2084.87,962.693 2084.87,962.693L2075.43,967.662L2075.2,964.966Z" style="fill:rgb(247,182,139);fill-rule:nonzero;"></path>        </g>        <g transform="matrix(1,0,0,1,-1980.11,-951.441)">            <path d="M2030.67,965.049L2075.63,916.723L2076.12,916.462L2112.59,970.397C2112.59,970.397 2113.4,972.188 2113.24,973.239C2113.13,974 2111.88,975.723 2110.39,976.844C2108.89,977.966 2058.39,1010.27 2058.39,1010.27L2030.67,965.049Z" style="fill:rgb(87,154,234);fill-rule:nonzero;"></path>        </g>        <g transform="matrix(1,0,0,1,-1980.11,-951.441)">            <path d="M2030.25,965.226L2075.62,916.452L2112.18,970.573C2112.18,970.573 2112.98,972.364 2112.83,973.415C2112.71,974.177 2111.47,975.9 2109.97,977.021C2108.48,978.142 2057.97,1010.44 2057.97,1010.44L2030.25,965.226Z" style="fill:rgb(5,97,252);fill-rule:nonzero;"></path>        </g>        <g transform="matrix(1,0,0,1,-1980.11,-951.441)">            <path d="M2068.36,921.531C2068.36,921.531 2075.16,922.098 2075.34,919.413C2075.36,919.076 2111.05,970.816 2111.12,970.91C2111.39,971.348 2112.17,973.801 2110.42,974.973C2109.38,975.675 2108.21,976.282 2106.19,974.787C2105.81,974.503 2068.36,921.531 2068.36,921.531Z" style="fill:rgb(234,244,254);fill-rule:nonzero;"></path>        </g>        <g transform="matrix(1,0,0,1,-1980.11,-951.441)">            <path d="M2066.38,919.302L2065.64,919.615L2027.38,966.979L2054.99,1008.15L2106.11,976.027L2066.38,919.302Z" style="fill:rgb(87,154,234);fill-rule:nonzero;"></path>        </g>        <g transform="matrix(1,0,0,1,-1980.11,-951.441)">            <path d="M2065.55,919.655L2026.13,967.508L2053.73,1008.68L2104.57,974.704L2065.55,919.655Z" style="fill:rgb(126,179,255);fill-rule:nonzero;"></path>        </g>        <g transform="matrix(1,0,0,1,-1980.11,-951.441)">            <path d="M2111.55,975.974C2111.55,975.974 2109.57,977.355 2107.48,976.814C2106.13,976.463 2105.17,974.835 2105.17,974.835L2053.9,1008.55C2053.9,1008.55 2055.43,1011.4 2057.32,1010.72C2059.22,1010.03 2111.55,975.974 2111.55,975.974Z" style="fill:rgb(87,154,234);fill-rule:nonzero;"></path>        </g>        <g transform="matrix(1,0,0,1,-1980.11,-951.441)">            <path d="M2083.05,994.201L2078.8,991.892C2078.8,991.892 2074.98,988.313 2073.87,987.575C2072.62,986.749 2071.58,986.817 2070.86,987.447C2070.14,988.077 2069.93,988.74 2070.02,988.949C2070.11,989.158 2067.4,986.222 2066.42,985.464C2065.08,984.428 2063.13,982.507 2061.76,983.162C2060.4,983.818 2060.12,984.511 2060.32,984.998C2060.53,985.486 2058.63,983.189 2057.69,982.828C2056.61,982.42 2055.35,982.253 2054.78,982.824C2054.2,983.396 2053.75,983.993 2053.9,984.342C2054.04,984.69 2055.29,987.074 2055.29,987.074C2055.29,987.074 2054.5,986.752 2053.8,986.841C2052.49,987.01 2052.55,987.944 2053.3,989.348C2054.06,990.751 2054.57,992.173 2055.54,993.896C2056.51,995.618 2060.59,1001.61 2060.59,1001.61L2065.7,1008.47L2070.23,1011.65C2070.23,1011.65 2071.9,1011.52 2072.27,1011.04C2072.64,1010.55 2072.55,1009.77 2073.85,1009.55C2075.16,1009.33 2076.97,1009.55 2077.64,1008.61C2078.31,1007.67 2078.45,1006.06 2079.59,1005.66C2080.74,1005.26 2081.85,1005.77 2082.58,1004.97C2083.31,1004.17 2084.43,1000.59 2084.43,1000.59C2084.43,1000.59 2086.65,997.687 2086.88,996.686C2087.12,995.686 2087.31,993.802 2087.31,993.802L2086.52,992.329L2083.05,994.201Z" style="fill:rgb(247,182,139);fill-rule:nonzero;"></path>        </g>    </g></svg>