<svg xmlns="http://www.w3.org/2000/svg" xmlns:xlink="http://www.w3.org/1999/xlink" xmlns:serif="http://www.serif.com/" width="100%" height="100%" viewBox="0 0 160 160" xml:space="preserve" style="fill-rule:evenodd;clip-rule:evenodd;stroke-linejoin:round;stroke-miterlimit:2;">    <g transform="matrix(1.10192,0,0,1.10192,-6.44207,-7.08401)">        <g transform="matrix(0.218866,0,0,0.241234,-671.155,-29.5031)">            <path d="M3652.82,280.46C3616.15,286.585 3561.93,309.123 3530.6,339.979C3462.78,401.713 3539.37,483.126 3565.12,553.135C3580.1,587.372 3583.6,609.956 3602.98,616.875C3620.59,623.718 3654.07,614.905 3688.26,584.692C3759.63,526.33 3739.71,391.267 3722.13,320.168C3712.49,284.681 3691.43,274.362 3652.82,280.46Z" style="fill:rgb(233,246,255);fill-rule:nonzero;"></path>        </g>        <g transform="matrix(0.218866,0,0,0.241234,-671.155,-29.5031)">            <path d="M3324.34,632.081C3303,625.201 3235.66,606.432 3185.03,615.891C3091.17,633.424 3070.85,527.32 3152.05,452.005C3174.74,430.957 3216.17,263.255 3307.69,261.438C3388.03,259.852 3424.71,354.86 3444.15,397.244C3463.58,439.653 3455.28,496.126 3451.74,521.672C3448.63,544.141 3398.96,656.134 3324.34,632.081Z" style="fill:rgb(247,248,252);fill-rule:nonzero;"></path>        </g>        <g transform="matrix(0.218866,0,0,0.241234,-671.155,-29.5031)">            <clipPath id="_clip1">                <path d="M3324.34,632.081C3302.99,625.2 3235.66,606.432 3185.03,615.891C3091.17,633.424 3070.85,527.32 3152.05,452.005C3174.74,430.957 3216.17,263.255 3307.69,261.438C3388.03,259.852 3424.71,354.86 3444.15,397.244C3463.58,439.653 3455.28,496.125 3451.74,521.672C3448.63,544.142 3398.96,656.134 3324.34,632.081Z"></path>            </clipPath>            <g clip-path="url(#_clip1)">                <path d="M3290.63,338.378C3284.46,341.346 3267.13,350.281 3255,364.358C3242.88,378.436 3236.72,385.316 3246.97,400.588C3257.23,415.855 3226.96,416.964 3242.76,424.824C3261.06,433.93 3265.63,441.12 3278.35,438.356C3300.75,433.496 3308.64,415.654 3301.44,397.935C3294.24,380.218 3293.31,379.324 3299.07,368.703C3304.84,358.08 3296.69,335.46 3290.63,338.378Z" style="fill:rgb(40,22,23);fill-rule:nonzero;"></path>                <path d="M3249.83,383.682C3249.83,383.682 3243.46,409.45 3227.24,410.45C3218.86,410.967 3213.08,410.31 3213.08,410.31C3213.08,410.31 3261.65,454.109 3271.43,440.859C3276.07,434.569 3257.24,426.57 3263.39,410.642C3275.02,380.479 3273.94,347.8 3249.83,383.682Z" style="fill:rgb(247,182,139);fill-rule:nonzero;"></path>                <path d="M3268.09,368.648C3263.69,371.574 3258.82,373.167 3254,373.527C3264.52,394.453 3285.61,391.059 3286.32,390.904C3287.07,390.729 3287.82,390.574 3288.49,389.328C3289.16,388.076 3289.31,386.757 3289.12,386.117C3288.93,385.482 3288.26,384.843 3288.47,384.718C3288.68,384.595 3290.07,383.763 3290.42,383.555C3290.76,383.346 3290.86,382.252 3290.86,382.252L3289.84,381.167C3291.65,380.089 3291.83,379.132 3291.9,378.618C3291.97,378.103 3291.27,377.345 3290.67,376.717C3290.16,376.17 3290.21,374.531 3290.42,373.934C3290.63,373.344 3292.45,372.447 3292.77,371.876C3293.1,371.304 3293.37,370.201 3293.14,369.966C3292.9,369.724 3292,369.107 3290.26,367.88C3288.53,366.654 3286.25,363.486 3286.26,357.823C3286.28,352.164 3284.92,352.465 3283.82,349.909C3281.03,343.37 3278.06,362.033 3268.09,368.648Z" style="fill:rgb(247,182,139);fill-rule:nonzero;"></path>                <path d="M3274.31,532.755L3350.76,518.929C3350.76,518.929 3375.16,512.424 3380.04,535.194C3385.72,561.735 3397.93,679.95 3397.93,679.95L3398.74,685.642L3436.15,705.973L3379.22,705.973L3383.29,688.082L3349.13,567.724C3349.13,567.724 3290.58,584.802 3271.06,584.802C3251.54,584.802 3236.91,577.483 3236.91,574.229C3236.91,570.977 3260.49,531.128 3274.31,532.755Z" style="fill:rgb(33,41,87);fill-rule:nonzero;"></path>                <path d="M3205.44,611.594C3202.22,611.594 3197.14,610.86 3192.69,606.983C3186.28,601.412 3183.51,591.499 3184.45,577.533C3185.07,568.104 3188.78,558.561 3192.71,548.449C3199.33,531.445 3206.82,512.173 3202.9,486.687L3210.18,485.566C3214.4,513.006 3206.18,534.138 3199.58,551.119C3195.7,561.097 3192.35,569.722 3191.79,578.018C3191.04,589.348 3192.99,597.421 3197.46,601.362C3201.69,605.103 3206.97,604.141 3207.2,604.1L3208.67,611.319C3208.54,611.344 3207.3,611.594 3205.44,611.594Z" style="fill:rgb(54,112,130);fill-rule:nonzero;"></path>                <rect x="3260.98" y="637.495" width="12.59" height="44.829" style="fill:rgb(136,189,218);fill-rule:nonzero;"></rect>                <rect x="3262.51" y="621.067" width="9.21" height="16.121" style="fill:rgb(54,112,130);fill-rule:nonzero;"></rect>                <path d="M3278.63,612.551C3278.63,617.507 3274.6,621.529 3269.65,621.529L3264.58,621.529C3259.62,621.529 3255.6,617.507 3255.6,612.551C3255.6,607.584 3259.62,603.567 3264.58,603.567L3269.65,603.567C3274.6,603.567 3278.63,607.584 3278.63,612.551Z" style="fill:rgb(54,112,130);fill-rule:nonzero;"></path>                <path d="M3335.57,604.337C3335.78,603.279 3335.91,596.65 3335.91,595.511C3335.91,588.259 3331.23,582.385 3325.44,582.385L3208.78,582.385C3203,582.385 3198.31,588.259 3198.31,595.511C3198.31,596.65 3198.44,603.279 3198.66,604.337L3335.57,604.337Z" style="fill:rgb(141,207,255);fill-rule:nonzero;"></path>                <path d="M3197.24,607.89C3197.24,610.112 3198.53,611.915 3200.14,611.915L3334.09,611.915C3335.7,611.915 3336.99,610.112 3336.99,607.89C3336.99,605.673 3335.7,603.873 3334.09,603.873L3200.14,603.873C3198.53,603.873 3197.24,605.673 3197.24,607.89Z" style="fill:rgb(54,112,130);fill-rule:nonzero;"></path>                <path d="M3203.76,536.974C3206.65,537.185 3224.93,537.508 3228.08,537.548C3248.1,537.789 3265.34,534.032 3266.3,529.102C3270.25,508.617 3270.43,487.606 3266.82,467.108C3265.96,462.182 3248.46,458.425 3228.02,458.675C3224.81,458.713 3206.15,459.038 3203.21,459.254C3209.48,484.801 3209.67,511.418 3203.76,536.974Z" style="fill:rgb(141,207,255);fill-rule:nonzero;"></path>                <path d="M3201.01,459.251C3198.77,459.278 3197.21,460.343 3197.52,461.627C3203.1,485.653 3203.3,510.579 3198.15,534.61C3197.87,535.899 3199.42,536.962 3201.61,536.987C3203.8,537.018 3205.83,535.988 3206.11,534.698C3211.33,510.607 3211.17,485.625 3205.63,461.538C3205.33,460.246 3203.26,459.222 3201.01,459.251Z" style="fill:rgb(54,112,130);fill-rule:nonzero;"></path>                <path d="M3200.12,536.935C3200.71,537.125 3204.68,537.272 3205.37,537.286C3209.73,537.339 3214.23,533.489 3215.09,528.643C3218.73,508.463 3218.64,487.771 3214.81,467.591C3213.9,462.739 3209.3,458.898 3204.85,458.949C3204.14,458.962 3200.11,459.113 3199.51,459.304C3205.79,484.818 3205.99,511.413 3200.12,536.935Z" style="fill:rgb(125,194,245);fill-rule:nonzero;"></path>                <path d="M3262.18,519.408L3320.85,471.796C3320.85,471.796 3332.06,473.025 3326.8,480.189C3321.53,487.352 3286.76,529.398 3286.76,529.398C3286.76,529.398 3251.25,545.515 3262.18,519.408Z" style="fill:rgb(236,149,104);fill-rule:nonzero;"></path>                <path d="M3263.82,408.94C3263.82,408.94 3287,412.599 3290.05,421.748C3293.1,430.897 3291.88,436.386 3291.88,440.656C3291.88,444.926 3262.6,425.408 3263.82,408.94Z" style="fill:rgb(137,160,0);fill-rule:nonzero;"></path>                <path d="M3238.81,405.89L3263.82,408.94C3263.82,408.94 3291.88,438.217 3297.98,439.436C3304.08,440.656 3295.86,507.446 3297.37,516.49C3298.18,521.369 3275.41,523.606 3263.21,525.436C3251.01,527.265 3233.93,525.436 3233.93,525.436C3233.93,525.436 3240.03,505.918 3235.76,485.79C3231.49,465.663 3212.59,450.415 3216.86,436.386C3221.13,422.358 3208.93,422.358 3238.81,405.89Z" style="fill:rgb(159,196,0);fill-rule:nonzero;"></path>                <path d="M3221.13,422.358C3221.13,422.358 3227.83,441.266 3226.61,453.465C3225.39,465.663 3221.74,495.549 3221.74,495.549C3221.74,495.549 3214.42,530.315 3200.39,526.046C3186.36,521.776 3187.58,482.131 3197.34,457.124C3207.1,432.117 3216.86,416.259 3221.13,422.358Z" style="fill:rgb(137,160,0);fill-rule:nonzero;"></path>                <path d="M3193.36,513.943C3193.36,513.943 3193.97,520.958 3193.97,522.483C3193.97,524.007 3200.68,525.837 3207.69,525.837C3214.71,525.837 3266.55,495.95 3271.43,493.816C3276.31,491.681 3287.59,488.632 3290.34,488.326C3293.08,488.022 3295.21,480.398 3293.69,475.518C3292.68,472.289 3291.67,469.461 3290.13,468.536C3289.35,468.063 3288.42,468.087 3287.29,468.809C3283.93,470.944 3270.51,482.532 3270.51,482.532C3270.51,482.532 3239.1,488.326 3226.6,493.816C3214.09,499.305 3199.46,506.014 3193.36,513.943Z" style="fill:rgb(247,182,139);fill-rule:nonzero;"></path>                <path d="M3306.19,470.639L3290.13,468.536L3293.69,475.518L3291.56,486.192L3300.4,487.717C3300.4,487.717 3301.62,486.192 3300.09,485.582C3298.57,484.972 3296.43,484.057 3296.43,484.057C3296.43,484.057 3300.7,483.447 3302.53,483.142C3304.36,482.837 3304.67,482.227 3304.67,481.313C3304.67,480.398 3302.84,479.788 3302.84,479.788C3302.84,479.788 3306.19,478.568 3306.5,477.653C3306.8,476.738 3307.41,475.518 3306.8,474.603C3306.19,473.688 3307.11,471.249 3306.19,470.639Z" style="fill:rgb(236,149,104);fill-rule:nonzero;"></path>                <path d="M3233.93,525.436L3263.21,525.436L3348.32,506.731C3348.32,506.731 3382.47,497.786 3373.53,522.183C3364.58,546.579 3333.96,679.95 3333.96,679.95L3315.26,678.323C3315.26,678.323 3318.51,589.681 3327.46,574.229C3336.4,558.778 3337.21,553.899 3337.21,553.899C3337.21,553.899 3277.85,585.615 3253.45,583.989C3229.05,582.362 3208.72,563.657 3233.93,525.436Z" style="fill:rgb(59,71,188);fill-rule:nonzero;"></path>                <path d="M3241.39,527.648C3241.38,527.658 3239.5,530.942 3237.62,535.419C3235.75,539.899 3233.85,545.561 3233.85,550.398C3233.85,552.695 3234.28,554.822 3235.39,556.533C3236.5,558.246 3238.29,559.501 3240.88,560.04C3241.58,560.188 3242.42,560.254 3243.38,560.255C3248.8,560.25 3258.41,558.144 3269.87,554.997C3304.24,545.552 3354.98,526.681 3354.98,526.679L3354.82,526.249L3354.44,526.005C3354.4,526.07 3328.91,566.799 3314.8,678.266L3315.71,678.381C3322.76,622.702 3332.65,584.713 3340.76,560.653C3344.82,548.623 3348.44,540.074 3351.04,534.538C3352.34,531.77 3353.39,529.754 3354.11,528.433C3354.46,527.772 3354.74,527.285 3354.93,526.964C3355.12,526.643 3355.21,526.493 3355.21,526.492L3355.93,525.349L3354.66,525.819C3354.66,525.82 3353.26,526.343 3350.75,527.26C3341.97,530.469 3319.74,538.494 3297.39,545.715C3286.21,549.325 3275,552.734 3265.44,555.239C3255.88,557.745 3247.93,559.341 3243.38,559.338C3242.46,559.338 3241.68,559.272 3241.07,559.143C3238.67,558.634 3237.14,557.535 3236.16,556.034C3235.18,554.531 3234.77,552.585 3234.77,550.398C3234.76,545.796 3236.61,540.195 3238.47,535.774C3239.4,533.562 3240.33,531.641 3241.03,530.275C3241.37,529.592 3241.66,529.048 3241.87,528.675C3242.07,528.302 3242.18,528.103 3242.18,528.103L3241.39,527.648Z" style="fill:rgb(141,207,255);fill-rule:nonzero;"></path>                <path d="M3301.34,477.942L3301.29,477.837L3301.34,474.588L3435.87,474.588L3435.87,477.942L3435.53,478.547C3433.8,481.364 3430.7,481.87 3427.14,481.87L3310.07,481.87C3306.52,481.87 3303.42,481.364 3301.69,478.547L3301.34,477.942Z" style="fill:rgb(208,222,230);fill-rule:nonzero;"></path>                <path d="M3333.76,475.862L3333.76,478.579L3333.43,479.071C3332.9,479.796 3332.23,480.333 3331.46,480.723L3311.01,480.723C3307.59,480.723 3304.61,480.316 3302.94,478.038L3302.62,477.543L3302.56,477.46L3302.59,475.862L3333.76,475.862Z" style="fill:rgb(182,194,201);fill-rule:nonzero;"></path>                <rect x="3351.92" y="475.34" width="67.22" height="2.296" style="fill:rgb(182,194,201);fill-rule:nonzero;"></rect>                <path d="M3334.51,474.471L3351.95,408.368C3352.41,406.618 3354.2,405.206 3355.94,405.206L3450.32,405.206C3452.06,405.206 3453.11,406.618 3452.64,408.368L3435.2,474.471L3334.51,474.471Z" style="fill:rgb(215,223,226);fill-rule:nonzero;"></path>                <path d="M3387.88,439.842C3386.99,443.212 3389.01,445.95 3392.38,445.95C3395.76,445.95 3399.21,443.212 3400.11,439.842C3400.99,436.461 3398.98,433.723 3395.61,433.723C3392.23,433.723 3388.77,436.461 3387.88,439.842Z" style="fill:rgb(182,194,201);fill-rule:nonzero;"></path>                <path d="M3431.93,708.949L3445.7,708.949L3422.98,488.926L3403.02,488.926L3431.93,708.949Z" style="fill:rgb(22,63,89);fill-rule:nonzero;"></path>                <path d="M3404.35,499.067L3413.1,565.7L3423.5,493.89L3422.98,488.926L3405.53,488.926L3404.35,499.067Z" style="fill:rgb(33,41,87);fill-rule:nonzero;"></path>                <path d="M3287.37,708.949L3273.6,708.949L3296.31,488.926L3316.28,488.926L3287.37,708.949Z" style="fill:rgb(22,63,89);fill-rule:nonzero;"></path>                <path d="M3314.95,499.067L3288.23,566.969L3295.8,493.89L3296.31,488.926L3313.77,488.926L3314.95,499.067Z" style="fill:rgb(33,41,87);fill-rule:nonzero;"></path>                <rect x="3277.04" y="481.783" width="166.01" height="12.858" style="fill:rgb(56,123,255);fill-rule:nonzero;"></rect>                <rect x="3435.37" y="481.783" width="188.5" height="12.858" style="fill:rgb(126,179,255);fill-rule:nonzero;"></rect>                <path d="M3292.79,339.274C3292.12,336.423 3258.35,327.384 3241.27,336.385C3212.58,351.501 3217.09,371.554 3219.11,374.687C3238.31,404.59 3210.54,407.713 3201.71,413.874C3191.75,420.827 3201.25,440.589 3213.91,443.155C3236.2,447.674 3258.75,417.504 3257.83,398.877C3256.8,378.191 3261.87,371.018 3275.72,362.789C3286.71,356.255 3294.17,345.163 3292.79,339.274Z" style="fill:rgb(33,41,87);fill-rule:nonzero;"></path>                <path d="M3239.1,376.667C3239.1,381.826 3243.29,386.008 3248.45,386.008C3253.6,386.008 3257.79,381.826 3257.79,376.667C3257.79,371.508 3253.6,367.325 3248.45,367.325C3243.29,367.325 3239.1,371.508 3239.1,376.667Z" style="fill:white;fill-rule:nonzero;"></path>                <path d="M3290.45,393.728C3286.2,395.017 3281.32,395.791 3276.46,395.79C3270.18,395.792 3263.94,394.502 3259.04,391.465C3254.14,388.418 3250.53,383.689 3249.37,376.518C3248.28,369.752 3247.8,363.825 3247.8,358.654C3247.8,346.286 3250.57,338.275 3254.4,333.395C3258.23,328.519 3263.11,326.679 3267.67,326.671C3271.11,326.668 3274.35,327.746 3276.68,329.388C3277.84,330.207 3278.78,331.164 3279.41,332.175C3280.04,333.188 3280.37,334.246 3280.37,335.316L3282.25,335.316C3282.25,333.849 3281.78,332.441 3281,331.182C3279.81,329.29 3277.9,327.71 3275.59,326.586C3273.28,325.463 3270.54,324.798 3267.67,324.798C3262.61,324.789 3257.09,326.908 3252.92,332.24C3248.75,337.57 3245.92,346.018 3245.92,358.654C3245.92,363.942 3246.42,369.966 3247.52,376.815C3248.74,384.482 3252.74,389.783 3258.05,393.057C3263.36,396.339 3269.93,397.661 3276.46,397.663C3281.52,397.662 3286.56,396.863 3291,395.52L3290.45,393.728Z" style="fill:rgb(197,225,249);fill-rule:nonzero;"></path>                <path d="M3289.08,396.486L3294.99,394.969C3295.43,394.858 3295.69,394.412 3295.58,393.979L3294.98,391.66C3294.87,391.227 3294.43,390.963 3293.99,391.074L3288.08,392.591C3287.64,392.702 3287.38,393.148 3287.49,393.582L3288.09,395.9C3288.2,396.333 3288.64,396.597 3289.08,396.486Z" style="fill:white;fill-rule:nonzero;"></path>                <path d="M3241.74,376.667C3241.74,380.37 3244.74,383.372 3248.45,383.372C3252.15,383.372 3255.15,380.37 3255.15,376.667C3255.15,372.964 3252.15,369.962 3248.45,369.962C3244.74,369.962 3241.74,372.964 3241.74,376.667Z" style="fill:rgb(197,225,249);fill-rule:nonzero;"></path>            </g>        </g>        <g transform="matrix(0.218866,0,0,0.241234,-671.155,-29.5031)">            <path d="M3501.49,355.458C3501.49,370.997 3488.9,383.595 3473.36,383.595L3373.28,383.595C3357.74,383.595 3345.14,370.997 3345.14,355.458L3345.14,334.466C3345.14,318.926 3357.74,306.327 3373.28,306.327L3473.36,306.327C3488.9,306.327 3501.49,318.926 3501.49,334.466L3501.49,355.458Z" style="fill:rgb(5,97,251);fill-rule:nonzero;"></path>        </g>        <g transform="matrix(0.218866,0,0,0.241234,-671.155,-29.5031)">            <path d="M3383.1,398.843L3383.1,370.039L3414.44,370.039L3383.1,398.843Z" style="fill:rgb(5,97,251);fill-rule:nonzero;"></path>        </g>        <g transform="matrix(0.218866,0,0,0.241234,-671.155,-29.5031)">            <path d="M3384.38,336.027L3463.46,336.027L3463.46,331.78L3384.38,331.78" style="fill:white;fill-rule:nonzero;"></path>        </g>        <g transform="matrix(0.218866,0,0,0.241234,-671.155,-29.5031)">            <path d="M3384.38,347.324L3463.46,347.324L3463.46,343.077L3384.38,343.077" style="fill:white;fill-rule:nonzero;"></path>        </g>        <g transform="matrix(0.218866,0,0,0.241234,-671.155,-29.5031)">            <path d="M3384.38,358.62L3463.46,358.62L3463.46,354.374L3384.38,354.374" style="fill:white;fill-rule:nonzero;"></path>        </g>        <g transform="matrix(0.218866,0,0,0.241234,-671.155,-29.5031)">            <path d="M3422.81,538.933C3422.81,523.394 3435.41,510.796 3450.95,510.796L3551.02,510.796C3566.56,510.796 3579.16,523.394 3579.16,538.933L3579.16,559.926C3579.16,575.465 3566.56,588.063 3551.02,588.063L3450.95,588.063C3435.41,588.063 3422.81,575.465 3422.81,559.926L3422.81,538.933Z" style="fill:rgb(221,0,11);fill-rule:nonzero;"></path>        </g>        <g transform="matrix(0.218866,0,0,0.241234,-671.155,-29.5031)">            <path d="M3541.2,495.549L3541.2,524.351L3509.86,524.351L3541.2,495.549Z" style="fill:rgb(221,0,11);fill-rule:nonzero;"></path>        </g>        <g transform="matrix(0.218866,0,0,0.241234,-671.155,-29.5031)">            <path d="M3539.92,558.364L3460.84,558.364L3460.84,562.61L3539.92,562.61" style="fill:white;fill-rule:nonzero;"></path>        </g>        <g transform="matrix(0.218866,0,0,0.241234,-671.155,-29.5031)">            <path d="M3539.92,547.067L3460.84,547.067L3460.84,551.314L3539.92,551.314" style="fill:white;fill-rule:nonzero;"></path>        </g>        <g transform="matrix(0.218866,0,0,0.241234,-671.155,-29.5031)">            <path d="M3539.92,535.771L3460.84,535.771L3460.84,540.017L3539.92,540.017" style="fill:white;fill-rule:nonzero;"></path>        </g>        <g transform="matrix(0.218866,0,0,0.241234,-671.155,-29.5031)">            <clipPath id="_clip2">                <path d="M3645.78,279.446C3606.88,285.249 3549.48,307.33 3516.48,337.945C3444.98,399.15 3527.07,481.356 3555.05,551.687C3571.28,586.101 3575.2,608.746 3595.85,615.849C3614.62,622.858 3650.11,614.335 3686.16,584.389C3761.45,526.592 3739.08,391.176 3719.77,319.827C3709.21,284.208 3686.74,273.687 3645.78,279.446Z"></path>            </clipPath>            <g clip-path="url(#_clip2)">                <path d="M3556.05,461.943C3550.61,457.118 3518.9,428.244 3516.77,426.582C3514.63,424.918 3504.82,422.323 3502.34,420.929C3499.85,419.536 3495.33,414.465 3493.54,412.531C3491.74,410.599 3494.45,410.147 3495.53,411.529C3496.61,412.906 3495.08,408.822 3494.82,407.075C3494.57,405.33 3497.87,406.358 3498.45,406.737C3499.03,407.12 3503.28,411.848 3503.82,412.535C3504.36,413.224 3507.9,414.904 3507.2,412.947C3506.5,410.991 3507.38,408.915 3509.02,412.077C3510.67,415.239 3510.74,414.624 3512.61,415.944C3514.47,417.261 3517.07,417.733 3519.96,422.137C3522.86,426.542 3559.93,447.523 3569.98,453.382C3584.02,461.565 3567.74,472.308 3556.05,461.943Z" style="fill:rgb(247,182,139);fill-rule:nonzero;"></path>                <path d="M3609.5,394.849C3606.5,392.337 3602.18,393.281 3598.38,397.702C3586.44,411.619 3574.09,432.83 3566.43,446.932C3565.56,448.527 3550.3,441.468 3550.3,441.468L3551.43,463.497C3551.43,463.497 3565.56,470.007 3571.46,468.935C3578.55,467.651 3595.68,452.471 3615.78,416.696C3621.59,406.344 3614.56,399.103 3609.5,394.849Z" style="fill:rgb(176,191,222);fill-rule:nonzero;"></path>                <path d="M3623.26,322.95C3650.57,316.53 3650.95,329.805 3655.26,346.316C3659.57,362.822 3658.28,398.814 3642.74,410.276C3627.2,421.735 3624.15,443.793 3615.4,431.091C3605.2,416.298 3598.37,428.392 3588.59,422.299C3571.36,411.589 3572.36,392.726 3586.33,378.128C3600.3,363.536 3599.13,359.888 3598.81,348.364C3598.47,336.836 3614.73,324.956 3623.26,322.95Z" style="fill:rgb(22,63,89);fill-rule:nonzero;"></path>                <path d="M3615.2,325.832C3617.34,324.455 3639.65,316.122 3652.56,323.688C3665.48,331.255 3671.26,345.337 3668.61,360.007C3665.97,374.679 3659.97,378.283 3672.32,391.92C3687.4,408.583 3697,420.341 3691.42,429.6C3680.63,447.494 3647.33,451.891 3644.23,441.729C3640.39,429.095 3662.09,400.746 3645.61,395.323C3633.41,391.3 3629.33,388.716 3629.05,372.992C3628.78,357.263 3643.84,349.217 3633.76,348.08C3621.85,346.746 3596.67,337.776 3615.2,325.832Z" style="fill:rgb(22,63,89);fill-rule:nonzero;"></path>                <path d="M3646.68,393.416C3646.68,393.416 3614.21,394.296 3613.47,392.683C3612.72,391.072 3609.36,387.411 3613.75,384.92C3618.13,382.429 3627.27,381.404 3632.5,381.55C3637.72,381.697 3650.26,382.022 3650.26,383.614C3650.26,389.104 3648.17,392.39 3646.68,393.416Z" style="fill:rgb(209,219,234);fill-rule:nonzero;"></path>                <path d="M3658.78,391.197C3658.78,391.197 3647.64,412.915 3634.54,415.911C3621.43,418.906 3603.27,416.098 3601.4,410.856C3599.52,405.614 3604.11,395.316 3607.11,392.695C3610.1,390.073 3619.84,387.452 3622.46,382.584C3624.6,378.614 3623.96,371.35 3622.46,365.733C3620.96,360.116 3616.47,359.741 3620.96,357.12C3625.46,354.499 3623.58,351.877 3628.08,352.627C3632.57,353.376 3635.19,351.691 3635.19,355.997C3635.19,363.861 3634.55,374.901 3638.94,379.963C3643.8,385.579 3650.92,384.456 3658.78,391.197Z" style="fill:rgb(247,182,139);fill-rule:nonzero;"></path>                <path d="M3628.29,372.121C3626.6,372.121 3624.98,371.788 3623.52,371.188C3623.28,369.311 3622.92,367.445 3622.46,365.734C3620.96,360.116 3616.47,359.741 3620.96,357.12C3625.46,354.499 3623.58,351.878 3628.08,352.626C3632.57,353.376 3635.19,351.691 3635.19,355.997C3635.19,360.175 3635.02,365.244 3635.5,369.842C3633.48,371.268 3631,372.121 3628.29,372.121Z" style="fill:rgb(236,149,104);fill-rule:nonzero;"></path>                <path d="M3656.93,523.756L3649.05,647.703C3649.05,647.703 3655.21,675.996 3656.01,685.533C3657.38,701.858 3655.8,751.055 3655.8,751.055L3639.33,751.803C3639.33,751.803 3627.72,640.589 3626.22,630.852C3624.72,621.116 3607.87,541.731 3617.61,522.259C3627.34,502.786 3656.93,523.756 3656.93,523.756Z" style="fill:rgb(25,72,102);fill-rule:nonzero;"></path>                <path d="M3618.17,518.139L3620.04,634.222L3623.79,745.438L3607.31,746.187C3607.31,746.187 3595.7,633.848 3594.21,624.112C3592.71,614.377 3575.86,536.114 3585.59,516.642C3595.33,497.169 3618.17,518.139 3618.17,518.139Z" style="fill:rgb(25,72,102);fill-rule:nonzero;"></path>                <path d="M3605.49,525.244L3618.56,542.111L3619.67,611.405C3615.03,601.974 3611.6,595.084 3610.52,593.1C3608.74,589.843 3601.58,578.179 3593.5,563.754C3593.42,558.77 3593.37,553.752 3593.37,548.74C3597.36,540.017 3601.42,532.048 3605.49,525.244Z" style="fill:rgb(22,63,89);fill-rule:nonzero;"></path>                <path d="M3587.54,521.415L3647.92,521.415L3639.2,470.234L3641.18,410.2C3641.18,410.2 3629.95,414.525 3620.12,415.143C3613.67,415.549 3599.9,410.2 3599.9,410.2L3587.54,521.415Z" style="fill:rgb(221,0,11);fill-rule:nonzero;"></path>                <path d="M3620.21,524.131C3620.21,524.131 3632.2,433.136 3635.57,426.396C3638.94,419.656 3641.56,403.928 3641.56,403.928L3642.31,389.324L3648.3,384.456C3648.3,384.456 3662.9,390.822 3665.52,394.567C3668.14,398.312 3660.65,416.285 3658.78,421.903C3656.91,427.519 3649.05,445.868 3648.67,449.987C3648.3,454.106 3648.75,463.576 3650.54,467.962C3664.77,502.786 3664.88,525.84 3664.4,525.629C3653.17,520.76 3620.21,524.131 3620.21,524.131Z" style="fill:rgb(209,219,234);fill-rule:nonzero;"></path>                <path d="M3613.47,385.954C3613.47,385.954 3599.99,394.567 3599.62,398.312C3599.24,402.056 3593.63,421.903 3592.5,438.753C3591.38,455.604 3592.5,460.097 3590.26,472.08C3588.01,484.063 3584.66,486.097 3582.39,500.914C3580.61,512.522 3580.15,523.007 3580.15,523.007C3580.15,523.007 3585.01,525.629 3589.88,522.259C3594.75,518.888 3602.24,478.821 3602.99,468.71C3603.74,458.6 3603.74,431.638 3605.61,424.898C3607.48,418.157 3614.41,397.562 3616.09,395.69C3620.3,391.015 3614.22,386.703 3613.47,385.954Z" style="fill:rgb(209,219,234);fill-rule:nonzero;"></path>                <path d="M3648.58,382.864L3642.21,389.324C3642.21,389.324 3643.8,388.318 3644.97,391.62C3645.82,394.002 3646.94,396.954 3646.94,396.954L3653.12,386.686C3653.12,386.686 3650.54,381.741 3648.58,382.864Z" style="fill:rgb(176,191,222);fill-rule:nonzero;"></path>                <path d="M3613.66,384.924C3613.66,384.924 3614.04,386.004 3614.69,386.703C3615.91,388.013 3617.26,390.354 3617.26,390.354C3617.26,390.354 3615.3,388.809 3614.03,390.518C3612.48,392.617 3610.66,397.75 3610.66,397.75C3610.66,397.75 3608.1,390.124 3609.55,388.205C3612.16,384.737 3613.66,384.924 3613.66,384.924Z" style="fill:rgb(176,191,222);fill-rule:nonzero;"></path>                <path d="M3619.6,335.504C3619.98,335.397 3620.37,335.307 3620.77,335.236C3621.58,339.867 3625.26,345.341 3630.97,349.648C3632.35,350.693 3633.77,351.591 3635.19,352.367L3635.19,356.711C3635.19,363.142 3629.74,368.356 3623.02,368.356C3616.3,368.356 3610.85,363.142 3610.85,356.711L3610.85,346.918C3614.19,344.694 3617.39,340.653 3619.6,335.504Z" style="fill:rgb(247,182,139);fill-rule:nonzero;"></path>                <path d="M3608.13,434.891C3608.13,434.891 3610.95,439.476 3609.19,439.976C3607.42,440.476 3596.11,434.594 3596.11,434.594L3592.54,434.26L3601.48,440.939C3602.16,441.251 3595.7,437.033 3592.31,435.714C3590.36,434.957 3589.06,435.419 3588.57,435.274C3587.22,434.87 3600.32,442.921 3600.32,442.921L3594.8,441.312C3594.8,441.312 3591.85,440.735 3593.35,442.36C3594.16,443.239 3595.38,443.406 3597.12,445.69C3598.87,447.974 3606.96,454.628 3614.95,455.374C3618.96,455.752 3621.7,457.834 3621.7,457.834L3659.96,481.018C3659.96,481.018 3677.4,483.484 3675.1,473.874C3672.8,464.265 3639.64,455.112 3627.68,451.644C3619.83,449.364 3619.2,447.232 3617.48,445.617C3615.76,444 3612.43,436.985 3608.13,434.891Z" style="fill:rgb(247,182,139);fill-rule:nonzero;"></path>                <path d="M3655.36,431.019L3659.31,461.521L3652.25,458.697L3657.9,482.985L3670.89,486.092C3670.89,486.092 3677.95,480.711 3677.11,478.184C3676.26,475.656 3673.69,419.749 3673.98,415.817C3674.26,411.885 3667.09,385.497 3659.53,396.439C3648.67,412.167 3655.36,431.019 3655.36,431.019Z" style="fill:rgb(176,191,222);fill-rule:nonzero;"></path>            </g>        </g>    </g></svg>